<svg xmlns="http://www.w3.org/2000/svg" width="122" height="140" fill="none" viewBox="0 0 122 140">
    <path fill="#CCC" d="M83.344 98.622v-95.7H12.218v95.7h71.126z"/>
    <path fill="#E5E5E5" d="M0 0h95.564v37.987H0V0zM0 42.37h95.564v37.988H0V42.37zM0 84.741h95.564v37.987H0V84.741z"/>
    <path fill="#8BC34A" d="M95.564 16.107H0v5.844h95.564v-5.844z"/>
    <path fill="#3F3D56" d="M95.564 58.478H0v5.845h95.564v-5.845zM95.564 100.849H0v5.844h95.564v-5.844z"/>
    <path fill="#8BC34A" d="M76.96 7.67c1.21 0 2.19-.98 2.19-2.191 0-1.21-.98-2.191-2.19-2.191-1.208 0-2.187.98-2.187 2.191 0 1.21.98 2.191 2.188 2.191zM84.62 7.67c1.21 0 2.19-.98 2.19-2.191 0-1.21-.98-2.191-2.19-2.191-1.208 0-2.187.98-2.187 2.191 0 1.21.98 2.191 2.188 2.191zM92.281 7.67c1.209 0 2.188-.98 2.188-2.191 0-1.21-.98-2.191-2.188-2.191-1.209 0-2.188.98-2.188 2.191 0 1.21.98 2.191 2.188 2.191z"/>
    <path fill="#3F3D56" d="M76.96 49.31c1.21 0 2.19-.98 2.19-2.19 0-1.211-.98-2.192-2.19-2.192-1.208 0-2.187.98-2.187 2.191 0 1.21.98 2.191 2.188 2.191zM84.62 49.31c1.21 0 2.19-.98 2.19-2.19 0-1.211-.98-2.192-2.19-2.192-1.208 0-2.187.98-2.187 2.191 0 1.21.98 2.191 2.188 2.191zM92.281 49.31c1.209 0 2.188-.98 2.188-2.19 0-1.211-.98-2.192-2.188-2.192-1.209 0-2.188.98-2.188 2.191 0 1.21.98 2.191 2.188 2.191zM76.96 90.95c1.21 0 2.19-.981 2.19-2.191s-.98-2.192-2.19-2.192c-1.208 0-2.187.982-2.187 2.192 0 1.21.98 2.191 2.188 2.191zM84.62 90.95c1.21 0 2.19-.981 2.19-2.191s-.98-2.192-2.19-2.192c-1.208 0-2.187.982-2.187 2.192 0 1.21.98 2.191 2.188 2.191zM92.281 90.95c1.209 0 2.188-.981 2.188-2.191s-.98-2.192-2.188-2.192c-1.209 0-2.188.982-2.188 2.192 0 1.21.98 2.191 2.188 2.191z"/>
    <path fill="#FF8A64" d="M120.816 75.531l-1.301-1.302c-.758-.759-1.787-1.185-2.859-1.185s-2.1.426-2.859 1.185L88.572 99.491 63.346 74.229c-.758-.759-1.787-1.185-2.859-1.185s-2.1.426-2.859 1.185l-1.3 1.302c-.758.76-1.184 1.79-1.184 2.863 0 1.074.426 2.104 1.184 2.863l25.226 25.262-25.226 25.261c-.758.76-1.184 1.79-1.184 2.863 0 1.074.426 2.104 1.184 2.863l1.3 1.302c.759.759 1.787 1.185 2.86 1.185 1.071 0 2.1-.426 2.858-1.185l25.226-25.261 25.225 25.261c.759.759 1.787 1.185 2.859 1.185s2.101-.426 2.859-1.185l1.301-1.302c.757-.759 1.183-1.789 1.183-2.863 0-1.073-.426-2.103-1.183-2.863L95.59 106.519l25.226-25.262c.757-.76 1.183-1.79 1.183-2.863s-.426-2.103-1.183-2.863z"/>
    <path fill="#000" d="M55.422 133.156L79.9 108.644l-.235-.235-23.343 23.375c-.39.391-.696.858-.899 1.372zM55.973 76.352c.758-.758 1.787-1.185 2.859-1.185s2.1.427 2.859 1.185l25.225 25.262 25.226-25.262c.759-.758 1.787-1.185 2.859-1.185s2.101.427 2.859 1.185l1.3 1.302c.558.56.941 1.27 1.101 2.043.159.774.09 1.578-.201 2.313l.75-.75c.757-.76 1.183-1.79 1.183-2.864 0-1.073-.426-2.103-1.183-2.863l-1.301-1.302c-.758-.759-1.786-1.185-2.859-1.185-1.072 0-2.1.426-2.858 1.185L88.566 99.493 63.34 74.23c-.758-.759-1.787-1.185-2.859-1.185s-2.1.426-2.858 1.185l-1.3 1.302c-.392.391-.698.859-.9 1.374l.55-.555zM95.825 106.757l-1.884 1.887 25.226 25.261c.558.559.94 1.269 1.1 2.043.16.774.091 1.577-.2 2.312l.749-.75c.758-.76 1.184-1.79 1.184-2.863 0-1.074-.426-2.104-1.184-2.863l-24.991-25.027z" opacity=".1"/>
</svg>
