<svg xmlns="http://www.w3.org/2000/svg" width="444" height="125" fill="none" viewBox="0 0 444 125">
    <g clip-path="url(#prefix__clip0)">
        <path fill="#FF8A64" stroke="#FF8A64" stroke-linecap="round" stroke-linejoin="round" stroke-width="5" d="M378.007 115.865c-6.823-.693-13.442-2.731-19.475-5.997-16.821-9.2-26.805-26.245-36.459-42.728-5.212-8.9-10.603-18.1-17.03-26.044-10.299-12.734-22.872-21.586-36.359-25.598-15.159-4.51-31.308-2.45-43.197 5.502-1.504 1.008-2.937 2.117-4.291 3.32 1.574.361 3.143.736 4.705 1.124 16.442 4.076 36.692 12.706 39.788 30.673 1.19 6.897-.96 14.335-5.895 20.405-5.288 6.507-13.037 10.547-20.733 10.806-1.253.042-2.508-.004-3.755-.136-13.651-1.44-26.029-13.02-28.538-27.407-2.125-12.183 2.732-25.607 12.098-34.841-9.912-2.204-19.93-3.895-30.016-5.068l.131-1.123c10.374 1.206 20.678 2.96 30.868 5.253 1.564-1.446 3.238-2.767 5.007-3.953 12.166-8.14 28.669-10.254 44.145-5.65 13.708 4.078 26.473 13.056 36.916 25.97 6.48 8.014 11.892 17.252 17.125 26.187 10.018 17.103 19.48 33.258 36.028 42.31 8.373 4.58 17.846 6.76 27.377 6.299 9.531-.46 18.752-3.543 26.648-8.909 7.897-5.365 14.164-12.807 18.112-21.506 3.948-8.7 5.424-18.32 4.267-27.803l1.12-.137c.995 7.957.168 16.038-2.419 23.63-2.586 7.59-6.865 14.492-12.511 20.183-5.647 5.69-12.512 10.019-20.077 12.658-7.564 2.639-15.629 3.519-23.583 2.574l.003.006zM220.186 25.247c-9.453 8.984-14.403 22.294-12.301 34.346 2.643 15.163 16.616 27.099 31.143 26.609 7.371-.25 14.804-4.134 19.893-10.39 4.733-5.818 6.79-12.927 5.659-19.502-2.991-17.366-22.833-25.774-38.949-29.765-1.808-.451-3.622-.884-5.445-1.298zM93.412 54.789c-5.07.017-10.126-.529-15.075-1.628-12.307-2.647-23.364-9.36-31.39-19.057-2.649-3.173-5.062-6.734-7.4-10.179-3.542-5.229-7.2-10.636-11.7-14.659-4.477-4-10.371-6.109-15.378-5.5-1.821.208-3.574.813-5.136 1.773C5.772 6.5 4.44 7.79 3.432 9.321l-.933-.636c1.097-1.665 2.546-3.07 4.245-4.113 1.7-1.044 3.607-1.701 5.588-1.927 5.4-.657 11.484 1.5 16.268 5.78 4.6 4.116 8.306 9.582 11.886 14.868 2.318 3.422 4.714 6.959 7.327 10.088 15.237 18.246 39.439 24.621 66.4 17.493l.288 1.092c-6.88 1.845-13.97 2.794-21.094 2.824l.005-.001z"/>
        <path fill="#858585" d="M128.429 45.356l-3.518-9.719-4.345 1.844c-2.6 1.104-1.772 6.325-3.773 8.803-1.666 2.062-2.493 1.636-5.062 2.852-1.095.465.103 3.008.103 3.008s1.276 3.193 2.371 2.729c4.173-1.166 2.989-2.063 5.63-1.83 3.175.283 6.011 4.11 8.611 3.006l4.345-1.845-4.402-8.831.04-.017z"/>
        <path fill="#404040" d="M133.915 42.77c-1.128-2.81-2.711-5.415-4.686-7.71l-1.246-2.935-2.498 1.06c-2.037.865-1.575 6.563 1.04 12.722 2.615 6.16 6.393 10.45 8.43 9.585l2.498-1.06-1.246-2.936c-.28-3.014-1.054-5.963-2.292-8.726z"/>
        <path fill="#858585" d="M137.282 54.504c2.04-.866 1.575-6.562-1.04-12.722-2.616-6.16-6.39-10.45-8.43-9.584-2.041.866-1.576 6.562 1.039 12.722 2.616 6.16 6.39 10.45 8.431 9.584z"/>
        <path fill="#404040" d="M131.268 39.008c.339.798.399 1.537.135 1.65-.265.111-.754-.445-1.093-1.244-.339-.798-.399-1.537-.135-1.649.264-.112.753.442 1.093 1.243z"/>
        <path fill="#404040" d="M138.078 34.41l-7.903 3.355 1.228 2.892 7.903-3.355-1.228-2.892z"/>
        <path fill="#404040" d="M139.545 37.2c.799-.339 1.171-1.261.832-2.06-.339-.798-1.261-1.17-2.059-.832-.799.34-1.172 1.261-.833 2.06.339.799 1.262 1.171 2.06.832zM134.783 47.288c.339.798.399 1.537.135 1.649-.264.112-.754-.444-1.093-1.243-.339-.798-.399-1.537-.135-1.649.264-.112.753.441 1.093 1.243z"/>
        <path fill="#404040" d="M141.593 42.69l-7.903 3.355 1.228 2.892 7.903-3.355-1.228-2.892z"/>
        <path fill="#404040" d="M143.06 45.48c.799-.34 1.172-1.261.833-2.06-.34-.799-1.262-1.171-2.06-.832-.799.34-1.171 1.261-.832 2.06.339.798 1.261 1.171 2.059.832z"/>
        <path fill="#858585" d="M192.016 16.256c-2.215-.172-4.385-.713-6.422-1.598-2.703-2.117-2.92-7.605-5.918-8.135l-5.008-.884L173.5 16.18l-.082-.015-2.53 10.872 5.008.884c2.997.53 5.187-4.419 8.452-5.483 2.047-.57 4.212-.568 6.259.005 1.262.223 1.787-2.64 1.787-2.64s.884-3.325-.378-3.548z"/>
        <path fill="#404040" d="M166.942 15.307c.504-3.223 1.535-6.34 3.053-9.228l.597-3.384 2.88.51c2.352.414 3.242 6.507 1.988 13.606-1.255 7.1-4.178 12.517-6.529 12.102l-2.88-.51.597-3.38c-.436-3.233-.336-6.516.294-9.716z"/>
        <path fill="#858585" d="M166.249 28.44c2.353.416 5.276-5.002 6.53-12.102 1.255-7.1.364-13.192-1.988-13.608-2.352-.415-5.276 5.004-6.53 12.103-1.254 7.1-.364 13.192 1.988 13.608z"/>
        <path fill="#404040" d="M168.811 10.717c-.163.92-.048 1.71.257 1.764.304.053.683-.65.846-1.57.162-.92.048-1.71-.257-1.764-.306-.053-.684.649-.846 1.57zM167.125 20.26c-.163.92-.047 1.71.257 1.763.304.054.683-.649.846-1.569.162-.92.048-1.71-.257-1.764-.306-.054-.684.648-.846 1.57z"/>
    </g>
    <defs>
        <clipPath id="prefix__clip0">
            <path fill="#fff" d="M0 0H444V125H0z"/>
        </clipPath>
    </defs>
</svg>
