<svg xmlns="http://www.w3.org/2000/svg" width="122" height="123" fill="none" viewBox="0 0 122 123">
    <path fill="#E5E5E5" d="M65.984 112.513c23.48 0 42.516-19.114 42.516-42.693 0-23.578-19.035-42.692-42.516-42.692-23.48 0-42.515 19.114-42.515 42.692 0 23.579 19.034 42.693 42.515 42.693z"/>
    <path fill="#FF8A64" d="M121.998 85.46H91.006c-2.115-12.278-2.115-24.829 0-37.106h30.992c-3.492 12.12-3.492 24.985 0 37.105z"/>
    <path fill="#fff" d="M115.12 58.404H96.261c-.325 0-.587-.425-.587-.951 0-.527.264-.952.587-.952h18.859c.326 0 .588.425.588.952 0 .526-.263.951-.588.951zM115.12 67.234H96.261c-.325 0-.587-.426-.587-.952s.264-.952.587-.952h18.859c.326 0 .588.426.588.952s-.263.952-.588.952z"/>
    <path fill="#F2F2F2" d="M26.376 47.804h39.927c2.724-15.817 2.724-31.987 0-47.804H26.376c4.498 15.614 4.498 32.19 0 47.804z"/>
    <path fill="#3F3D56" d="M60.003 13.928H35.707c-.42 0-.759-.549-.759-1.226 0-.677.34-1.226.76-1.226h24.295c.42 0 .76.549.76 1.226 0 .677-.34 1.226-.76 1.226zM60.003 25.303H35.707c-.42 0-.759-.548-.759-1.226 0-.677.34-1.226.76-1.226h24.295c.42 0 .76.549.76 1.226 0 .678-.34 1.226-.76 1.226zM60.003 36.68H35.707c-.42 0-.759-.55-.759-1.227s.34-1.226.76-1.226h24.295c.42 0 .76.549.76 1.226 0 .678-.34 1.226-.76 1.226z"/>
    <path fill="#F2F2F2" d="M0 122.004h39.927c2.724-15.817 2.724-31.987 0-47.804H0c4.498 15.614 4.498 32.189 0 47.804z"/>
    <path fill="#3F3D56" d="M33.628 88.127H9.332c-.42 0-.759-.549-.759-1.226 0-.677.34-1.226.76-1.226h24.295c.42 0 .76.549.76 1.226 0 .677-.34 1.226-.76 1.226zM33.628 99.503H9.332c-.42 0-.759-.549-.759-1.226 0-.677.34-1.226.76-1.226h24.295c.42 0 .76.549.76 1.226 0 .677-.34 1.226-.76 1.226z"/>
</svg>
