<svg xmlns="http://www.w3.org/2000/svg" width="272" height="140" fill="none" viewBox="0 0 272 140">
    <path fill="#E5E5E5" d="M145.921 4.694H0V85.76h145.921V4.694z"/>
    <path fill="#fff" d="M7.968 77.793h129.984V12.662H7.968v65.131z"/>
    <path fill="#CCC" d="M145.708 0H.213v7.253h145.495V0z"/>
    <path fill="#E5E5E5" d="M41.797 35.627H15.343V54.4h26.454V35.627zM130.578 35.627h-72.96v2.133h72.96v-2.133zM130.578 44.16h-72.96v2.134h72.96V44.16zM130.578 52.694h-72.96v2.133h72.96v-2.133z"/>
    <path fill="#E5E5E5" d="M232.523 24.062H70.069v104.042h162.454V24.062z"/>
    <path fill="#fff" d="M227.877 37.111H74.715v84.838h153.162V37.111z"/>
    <path fill="#FF8A64" d="M232.453 23.97H70v6.901h162.453V23.97z"/>
    <path fill="#fff" d="M216.927 28.777c.706 0 1.279-.572 1.279-1.279 0-.706-.573-1.28-1.279-1.28-.707 0-1.28.574-1.28 1.28 0 .707.573 1.28 1.28 1.28zM221.782 28.777c.707 0 1.279-.572 1.279-1.279 0-.706-.572-1.28-1.279-1.28-.706 0-1.279.574-1.279 1.28 0 .707.573 1.28 1.279 1.28zM226.638 28.777c.706 0 1.279-.572 1.279-1.279 0-.706-.573-1.28-1.279-1.28-.707 0-1.28.574-1.28 1.28 0 .707.573 1.28 1.28 1.28z"/>
    <path fill="#E5E5E5" d="M127.988 45.914H88.632v67.232h39.356V45.914z"/>
    <path fill="#FF8A64" d="M167.578 45.914h-32.797V64.42h32.797V45.914z"/>
    <path fill="#E5E5E5" d="M167.578 69.574h-32.797v19.912h32.797V69.574zM167.578 94.64h-32.797v18.506h32.797V94.64zM213.96 45.914h-39.356v29.3h39.356v-29.3z"/>
    <path fill="#FF8A64" d="M213.96 83.847h-39.356v29.299h39.356v-29.3z"/>
    <path fill="#404040" d="M223.117 53.69c-5.047-4.26-11.223-6.96-17.777-7.773-6.554-.812-13.203.297-19.137 3.194-5.935 2.898-10.9 7.457-14.29 13.124-3.391 5.668-5.061 12.198-4.808 18.797.254 6.6 2.42 12.983 6.235 18.374 3.815 5.39 9.114 9.556 15.254 11.989 6.139 2.434 12.853 3.03 19.326 1.717 6.472-1.312 12.423-4.478 17.129-9.112l41.787 35.26c.636.537 1.46.799 2.289.729.83-.07 1.598-.467 2.134-1.104.537-.636.8-1.46.729-2.289-.07-.83-.467-1.598-1.103-2.134l-41.787-35.26c4.854-6.967 6.932-15.495 5.826-23.914-1.106-8.42-5.317-16.122-11.806-21.598h-.001zm-2.693 42.117c-3.256 3.858-7.582 6.664-12.432 8.064-4.851 1.399-10.007 1.328-14.817-.203-4.81-1.531-9.058-4.454-12.207-8.4-3.149-3.945-5.057-8.736-5.483-13.766-.426-5.03.649-10.073 3.089-14.492 2.44-4.42 6.136-8.016 10.62-10.334 4.484-2.319 9.555-3.256 14.571-2.692 5.017.563 9.753 2.601 13.612 5.857 5.173 4.365 8.4 10.607 8.972 17.352.571 6.745-1.56 13.44-5.925 18.614z"/>
    <path fill="#000" d="M184.139 98.854c-4.897-4.132-8.06-9.954-8.863-16.31-.802-6.357.815-12.782 4.531-18.001-.487.491-.959 1.006-1.415 1.544-2.161 2.562-3.797 5.524-4.814 8.718-1.016 3.194-1.394 6.557-1.111 9.896.572 6.746 3.799 12.987 8.973 17.353 5.174 4.365 11.869 6.496 18.615 5.925 6.745-.572 12.986-3.799 17.352-8.973.454-.538.882-1.09 1.284-1.655-4.52 4.542-10.582 7.217-16.983 7.496-6.401.278-12.673-1.861-17.569-5.993z" opacity=".3"/>
</svg>
