<svg xmlns="http://www.w3.org/2000/svg" width="274" height="159" fill="none" viewBox="0 0 274 159">
    <path fill="#CCC" d="M207.862 156.218H78.876s-2.615-38.347 12.855-38.783c15.47-.435 13.727 16.995 33.118-6.971 19.392-23.966 42.924-22.66 45.974-8.499 3.05 14.16-5.883 25.492 10.456 22.006 16.34-3.486 39.875 5.665 26.583 32.247z"/>
    <path fill="#FF8A64" d="M65.31 144.431c-1.866 6.897-8.255 11.17-8.255 11.17s-3.363-6.91-1.5-13.81c1.863-6.899 8.255-11.17 8.255-11.17s3.363 6.911 1.5 13.81z"/>
    <path fill="#FF8A64" d="M48.331 144.431c1.867 6.897 8.255 11.17 8.255 11.17s3.364-6.91 1.5-13.81c-1.863-6.899-8.255-11.17-8.255-11.17s-3.363 6.911-1.5 13.81z"/>
    <path fill="#96D450" d="M51.073 142.945c5.12 4.984 5.748 12.647 5.748 12.647s-7.676-.419-12.797-5.404c-5.12-4.985-5.748-12.647-5.748-12.647s7.676.423 12.797 5.404z"/>
    <path fill="#96D450" d="M62.564 142.945c-5.12 4.984-5.748 12.647-5.748 12.647s7.676-.419 12.797-5.404c5.12-4.985 5.748-12.647 5.748-12.647s-7.677.423-12.797 5.404z"/>
    <path fill="#CCC" d="M137 159c75.663 0 137-1.425 137-3.183 0-1.758-61.337-3.183-137-3.183S0 154.059 0 155.817C0 157.575 61.337 159 137 159z"/>
    <path fill="#404040" d="M89.574 11.142h-9.286V152.75h9.286V11.142z"/>
    <path fill="#FF8A64" d="M145.288 6.5H24.573v56.643h120.715V6.5z"/>
    <path fill="#404040" d="M84.93 13c3.59 0 6.5-2.91 6.5-6.5S88.52 0 84.93 0s-6.5 2.91-6.5 6.5 2.91 6.5 6.5 6.5z"/>
    <path fill="#fff" d="M136.667 52.282H33.326V17.427h103.341v34.855z"/>
    <path fill="#fff" d="M33.632 17.733v34.243h102.73V17.733H33.632zm-.612-.611h103.953v35.466H33.02V17.122z"/>
    <path fill="#222" d="M79.195 37.586v1.27H77.34V42h-1.387v-3.145h-6.27v-1.27l5.626-9.726h2.03v9.727h1.856zm-3.242 0v-8.398l-4.726 8.398h4.726zm10.274 4.668c-1.576 0-2.748-.593-3.516-1.777-.768-1.198-1.152-3.047-1.152-5.547 0-2.5.384-4.343 1.152-5.528.768-1.198 1.94-1.797 3.516-1.797 1.575 0 2.747.6 3.515 1.797.768 1.185 1.152 3.028 1.152 5.528 0 2.5-.384 4.349-1.152 5.547-.768 1.184-1.94 1.777-3.515 1.777zm0-1.29c1.093 0 1.894-.487 2.402-1.464.52-.977.781-2.5.781-4.57 0-2.07-.26-3.594-.781-4.57-.508-.977-1.309-1.465-2.402-1.465-1.094 0-1.901.488-2.422 1.464-.508.977-.762 2.5-.762 4.57 0 2.071.254 3.594.762 4.571.52.977 1.328 1.465 2.422 1.465zm11.289-7.44c.833 0 1.562.175 2.187.527.638.338 1.126.827 1.465 1.465.352.638.527 1.373.527 2.207 0 .898-.195 1.692-.586 2.383-.377.677-.918 1.204-1.62 1.581-.69.378-1.492.567-2.403.567-.664 0-1.36-.098-2.09-.293-.716-.195-1.341-.456-1.875-.781l.606-1.27c.52.313 1.074.56 1.66.742.586.17 1.152.254 1.699.254.977 0 1.738-.28 2.285-.84.547-.56.82-1.34.82-2.343 0-.938-.267-1.667-.8-2.188-.521-.534-1.257-.8-2.207-.8-.508 0-.95.058-1.328.175l-.547-.683 4.355-5.118h-6.328v-1.25h7.949v1.25l-3.77 4.414z"/>
</svg>
