<svg xmlns="http://www.w3.org/2000/svg" width="128" height="146" fill="none" viewBox="0 0 128 146">
    <g clip-path="url(#prefix__clip0)">
        <path fill="#F2F2F2" d="M71.148 82.024L31.38 75.143c7.108-14.674 10.357-29.171 7.581-43.394l39.77 6.882c-6.186 13.59-8.795 28.523-7.582 43.393z"/>
        <path fill="#3F3D56" d="M67.775 44.842L47.17 41.277l-.166.953 20.603 3.566.167-.954zM67.109 48.657L46.505 45.09l-.166.954 20.603 3.565.167-.953zM66.442 52.471l-20.604-3.565-.166.953 20.603 3.566.167-.954zM65.776 56.287L45.172 52.72l-.166.954 20.603 3.565.167-.953zM65.109 60.102l-20.604-3.566-.166.953 20.603 3.566.167-.953zM64.443 63.916L43.839 60.35l-.166.953 20.603 3.566.167-.953zM63.776 67.731l-20.604-3.565-.166.953 20.603 3.566.167-.954zM63.11 71.546L42.506 67.98l-.166.954 20.603 3.565.167-.953z"/>
        <path fill="#F2F2F2" d="M88.86 95.963L49.09 89.082C56.2 74.408 59.448 59.91 56.673 45.688l39.769 6.882c-6.185 13.59-8.794 28.523-7.582 43.393z"/>
        <path fill="#3F3D56" d="M85.487 58.78l-20.603-3.566-.167.954 20.604 3.565.166-.953zM84.82 62.594L64.217 59.03l-.167.953 20.604 3.566.166-.954zM84.154 66.41l-20.603-3.566-.167.954 20.604 3.565.166-.953zM83.487 70.224L62.884 66.66l-.167.953 20.604 3.566.166-.954zM82.821 74.039l-20.603-3.566-.167.954 20.604 3.565.166-.953zM82.154 77.855l-20.603-3.566-.167.954 20.604 3.565.166-.954zM81.487 81.669l-20.603-3.566-.167.954 20.604 3.565.166-.953zM80.821 85.484l-20.603-3.566-.167.953 20.604 3.566.166-.953z"/>
        <path fill="#FF8A64" d="M48.952 64.474l-38.654-11.59c8.792-13.726 13.737-27.74 12.662-42.199l38.654 11.59c-7.747 12.76-12.105 27.282-12.662 42.199z"/>
        <path fill="#EAEAEA" d="M50.023 27.13L29.99 21.145l-.279.924 20.033 5.983.278-.924zM48.905 30.838l-20.032-5.983-.279.924 20.032 5.983.279-.924zM47.787 34.547l-20.032-5.983-.278.923 20.032 5.984.278-.924zM46.669 38.255l-20.032-5.983-.278.924 20.032 5.983.278-.924zM45.552 41.964L25.52 35.98l-.279.923 20.032 5.983.279-.923zM44.433 45.673L24.401 39.69l-.278.923 20.032 5.983.278-.923zM43.315 49.382l-20.032-5.984-.278.924 20.032 5.983.278-.923zM42.198 53.09l-20.032-5.983-.279.924 20.032 5.983.279-.924z"/>
        <path fill="#CCC" d="M95.818 146H32.65l-3.035-86.44h69.24L95.818 146z"/>
        <path fill="#fff" d="M45.688 72.24h-5.396v66.449h5.396v-66.45zM66.932 72.24h-5.396v66.449h5.396v-66.45zM88.177 72.24H82.78v66.449h5.396v-66.45z" opacity=".2"/>
        <path fill="#EAEAEA" d="M97.92 11.666c-2.203-1.387-4.76-2.117-7.367-2.102-2.607.015-5.155.775-7.342 2.188-2.186 1.413-3.92 3.421-4.994 5.785-1.074 2.365-1.445 4.986-1.067 7.553l3.613 2.274c-.909-2.099-1.118-4.432-.598-6.657.52-2.226 1.744-4.227 3.49-5.712 1.745-1.484 3.923-2.372 6.213-2.536 2.29-.163 4.573.407 6.514 1.628 1.94 1.221 3.438 3.029 4.272 5.158.834 2.129.961 4.467.363 6.674-.598 2.206-1.89 4.164-3.687 5.586-1.797 1.423-4.004 2.236-6.299 2.32l3.613 2.273c2.492-.762 4.713-2.219 6.399-4.199 1.685-1.98 2.764-4.4 3.109-6.972.345-2.572-.059-5.188-1.163-7.539-1.105-2.35-2.864-4.336-5.069-5.722z"/>
        <path fill="#CCC" d="M52.48.003L46.282 9.76l75.494 47.48 6.196-9.757L52.479.003z"/>
    </g>
    <defs>
        <clipPath id="prefix__clip0">
            <path fill="#fff" d="M0 0H128V146H0z"/>
        </clipPath>
    </defs>
</svg>
