<svg xmlns="http://www.w3.org/2000/svg" width="18" height="20" fill="none" viewBox="0 0 18 20">
    <path fill="#2D9CDB" d="M.774 1.648L12.086.005c.064-.01.13-.005.191.014.062.018.12.05.168.093.049.043.088.096.115.156.026.06.04.124.04.19v19.084c0 .066-.014.13-.04.19-.027.06-.066.113-.115.156-.048.043-.105.075-.167.093-.062.019-.127.024-.19.014L.772 18.352c-.214-.03-.41-.14-.553-.306-.142-.167-.22-.38-.22-.6V2.554c0-.22.078-.433.22-.6.142-.166.339-.275.553-.306h.001zm12.726.113h3.6c.239 0 .468.096.636.268.17.171.264.404.264.647v14.648c0 .243-.095.476-.264.647-.168.172-.397.269-.636.269h-3.6V1.76zM7.38 10L9.9 6.337H7.74L6.3 8.431 4.86 6.338H2.7L5.22 10 2.7 13.662h2.16L6.3 11.57l1.44 2.093H9.9L7.38 10z"/>
</svg>
