<svg width="101" height="100" viewBox="0 0 101 100" fill="none" xmlns="http://www.w3.org/2000/svg">
<path d="M50.5 100C78.3904 100 101 77.6142 101 50C101 22.3858 78.3904 0 50.5 0C22.6096 0 0 22.3858 0 50C0 77.6142 22.6096 100 50.5 100Z" fill="#E6EAED"/>
<path d="M79.1673 73.59H17.656C14.7134 73.59 12.3402 71.2404 12.3402 68.3269V35.8081C12.3402 32.8945 14.7134 30.5449 17.656 30.5449H79.1673C82.11 30.5449 84.4831 32.8945 84.4831 35.8081V68.3269C84.4831 71.2404 82.11 73.59 79.1673 73.59Z" fill="#00A9F0" stroke="#0074D4" stroke-width="1.8" stroke-miterlimit="10" stroke-linejoin="round"/>
<path d="M12.3402 35.7141C12.3402 32.8945 14.7134 30.5449 17.5611 30.5449H79.1673C82.015 30.5449 84.3882 32.8945 84.3882 35.7141" fill="white"/>
<path d="M12.3402 35.7141C12.3402 32.8945 14.7134 30.5449 17.5611 30.5449H79.1673C82.015 30.5449 84.3882 32.8945 84.3882 35.7141" stroke="#0074D4" stroke-width="1.8" stroke-miterlimit="10" stroke-linejoin="round"/>
<path d="M76.6043 33.6463C77.1285 33.6463 77.5535 33.2255 77.5535 32.7065C77.5535 32.1874 77.1285 31.7666 76.6043 31.7666C76.08 31.7666 75.655 32.1874 75.655 32.7065C75.655 33.2255 76.08 33.6463 76.6043 33.6463Z" fill="#005CB9"/>
<path d="M49.6457 41.918C41.9568 41.918 35.6917 48.121 35.6917 55.7338C35.6917 63.3465 41.9568 69.5495 49.6457 69.5495C57.3346 69.5495 63.5996 63.3465 63.5996 55.7338C63.6946 48.121 57.4295 41.918 49.6457 41.918Z" fill="white"/>
<path d="M27.6231 65.2256C30.7556 65.2256 33.5085 63.8158 35.312 61.5602C34.5526 58.0828 31.4201 55.4512 27.6231 55.4512C23.9211 55.4512 20.7885 58.0828 19.9342 61.5602C21.8327 63.8158 24.5855 65.2256 27.6231 65.2256Z" fill="#00A9F0"/>
<path d="M31.6099 49.7188C31.6099 51.8805 29.8064 53.6662 27.6231 53.6662C25.4398 53.6662 23.6363 51.8805 23.6363 49.7188C23.6363 47.5572 25.4398 45.7715 27.6231 45.7715C29.8064 45.7715 31.6099 47.5572 31.6099 49.7188Z" fill="#00A9F0"/>
<path d="M49.6457 65.2256C52.7782 65.2256 55.531 63.8158 57.3346 61.5602C56.5752 58.0828 53.4427 55.4512 49.6457 55.4512C45.9436 55.4512 42.8111 58.0828 41.9568 61.5602C43.8553 63.8158 46.6081 65.2256 49.6457 65.2256Z" fill="#00A9F0"/>
<path d="M53.6325 49.7188C53.6325 51.8805 51.829 53.6662 49.6457 53.6662C47.4624 53.6662 45.6588 51.8805 45.6588 49.7188C45.6588 47.5572 47.4624 45.7715 49.6457 45.7715C51.829 45.7715 53.6325 47.5572 53.6325 49.7188Z" fill="#00A9F0"/>
<path d="M71.6682 65.2256C74.8007 65.2256 77.5535 63.8158 79.3571 61.5602C78.5977 58.0828 75.4652 55.4512 71.6682 55.4512C67.9661 55.4512 64.8336 58.0828 63.9793 61.5602C65.8778 63.8158 68.6306 65.2256 71.6682 65.2256Z" fill="#00A9F0"/>
<path d="M75.6551 49.7188C75.6551 51.8805 73.8515 53.6662 71.6682 53.6662C69.485 53.6662 67.6814 51.8805 67.6814 49.7188C67.6814 47.5572 69.485 45.7715 71.6682 45.7715C73.8515 45.7715 75.6551 47.5572 75.6551 49.7188Z" fill="#00A9F0"/>
<path d="M49.6457 40.8828C41.3872 40.8828 34.6476 47.5557 34.6476 55.7324C34.6476 63.9091 41.3872 70.5821 49.6457 70.5821C57.9041 70.5821 64.6438 63.9091 64.6438 55.7324C64.6438 47.5557 57.9991 40.8828 49.6457 40.8828Z" stroke="#0074D4" stroke-miterlimit="10"/>
<path d="M61.0367 66.6357L71.4784 76.9741" stroke="#0074D4" stroke-miterlimit="10" stroke-linecap="round"/>
</svg>
