<svg width="110" height="100" viewBox="0 0 110 100" fill="none" xmlns="http://www.w3.org/2000/svg">
<path d="M59.8446 100C87.5446 100 110 77.6142 110 50C110 22.3858 87.5446 0 59.8446 0C32.1445 0 9.68912 22.3858 9.68912 50C9.68912 77.6142 32.1445 100 59.8446 100Z" fill="#E6EAEC"/>
<path d="M82.9275 81.8183H37.0466C36.1038 81.8183 35.3368 81.0536 35.3368 80.1137V19.8864C35.3368 18.9465 36.1038 18.1819 37.0466 18.1819H74.8852L84.6373 27.8087V80.1137C84.6373 81.0536 83.8703 81.8183 82.9275 81.8183Z" fill="white"/>
<path d="M37.0466 18.4659C36.261 18.4659 35.6218 19.1031 35.6218 19.8863V80.1136C35.6218 80.8969 36.261 81.5341 37.0466 81.5341H82.9275C83.7131 81.5341 84.3523 80.8969 84.3523 80.1136V27.9272L74.7679 18.4659H37.0466ZM37.0466 17.8977H75.0024L84.9223 27.6902V80.1136C84.9223 81.2119 84.0292 82.1022 82.9275 82.1022H37.0466C35.9449 82.1022 35.0518 81.2119 35.0518 80.1136V19.8863C35.0518 18.788 35.9449 17.8977 37.0466 17.8977Z" fill="#0074D3"/>
<path d="M75.3477 19.258V25.8762C75.3477 26.3666 75.4742 26.7328 75.7236 26.9647C75.9972 27.219 76.4432 27.3479 77.0491 27.3479H83.5596L75.3477 19.258ZM74.7777 17.8977L84.9472 27.9161C84.9472 27.9161 78.5919 27.9161 77.0491 27.9161C75.5064 27.9161 74.7777 27.167 74.7777 25.8762C74.7777 24.5855 74.7777 17.8977 74.7777 17.8977Z" fill="#0074D3"/>
<path d="M74.9482 35.2273H45.0259C43.452 35.2273 42.1762 36.4992 42.1762 38.0682C42.1762 39.6372 43.452 40.9091 45.0259 40.9091H74.9482C76.5221 40.9091 77.7979 39.6372 77.7979 38.0682C77.7979 36.4992 76.5221 35.2273 74.9482 35.2273Z" fill="#EBEFF2"/>
<path d="M74.9482 47.1592H45.0259C43.452 47.1592 42.1762 48.4311 42.1762 50.0001C42.1762 51.5691 43.452 52.841 45.0259 52.841H74.9482C76.5221 52.841 77.7979 51.5691 77.7979 50.0001C77.7979 48.4311 76.5221 47.1592 74.9482 47.1592Z" fill="#EBEFF2"/>
<path d="M67.8238 59.0908H45.0259C43.452 59.0908 42.1762 60.3627 42.1762 61.9317C42.1762 63.5007 43.452 64.7726 45.0259 64.7726H67.8238C69.3977 64.7726 70.6736 63.5007 70.6736 61.9317C70.6736 60.3627 69.3977 59.0908 67.8238 59.0908Z" fill="#EBEFF2"/>
<path d="M90.0518 95.1706C88.282 95.1706 86.5653 94.8251 84.9493 94.1437C83.3884 93.4855 81.9865 92.5432 80.7825 91.343C79.5785 90.1427 78.6333 88.7451 77.973 87.189C77.2895 85.5781 76.943 83.8667 76.943 82.1024C76.943 80.338 77.2895 78.6267 77.973 77.0157C78.6333 75.4596 79.5785 74.062 80.7825 72.8618C81.9865 71.6615 83.3884 70.7192 84.9493 70.061C86.5653 69.3797 88.282 69.0342 90.0518 69.0342C91.8216 69.0342 93.5383 69.3797 95.1543 70.061C96.7152 70.7192 98.1172 71.6615 99.3211 72.8618C100.525 74.062 101.47 75.4596 102.131 77.0157C102.814 78.6267 103.161 80.338 103.161 82.1024C103.161 83.8667 102.814 85.5781 102.131 87.189C101.47 88.7451 100.525 90.1427 99.3211 91.343C98.1172 92.5432 96.7152 93.4855 95.1543 94.1437C93.5383 94.8251 91.8216 95.1706 90.0518 95.1706Z" fill="#00A9EF"/>
<path d="M90.0518 69.3182C88.3203 69.3182 86.641 69.6561 85.0604 70.3226C83.5334 70.9664 82.1619 71.8883 80.984 73.0626C79.8061 74.2368 78.8814 75.604 78.2355 77.1263C77.567 78.702 77.228 80.3762 77.228 82.1023C77.228 83.8284 77.567 85.5025 78.2355 87.0782C78.8814 88.6005 79.8061 89.9677 80.984 91.142C82.1619 92.3162 83.5334 93.2381 85.0604 93.882C86.641 94.5484 88.3203 94.8864 90.0518 94.8864C91.7833 94.8864 93.4626 94.5484 95.0432 93.882C96.5702 93.2381 97.9417 92.3162 99.1196 91.142C100.298 89.9677 101.222 88.6005 101.868 87.0782C102.537 85.5025 102.876 83.8284 102.876 82.1023C102.876 80.3762 102.537 78.702 101.868 77.1263C101.222 75.604 100.298 74.2368 99.1196 73.0626C97.9417 71.8883 96.5702 70.9664 95.0432 70.3226C93.4626 69.6561 91.7833 69.3182 90.0518 69.3182ZM90.0518 68.75C97.449 68.75 103.446 74.728 103.446 82.1023C103.446 89.4765 97.449 95.4545 90.0518 95.4545C82.6546 95.4545 76.658 89.4765 76.658 82.1023C76.658 74.728 82.6546 68.75 90.0518 68.75Z" fill="#0074D3"/>
<path d="M93.956 85.2861L89.77 82.8773C89.5997 82.8039 89.4548 82.6825 89.3529 82.528C89.2511 82.3734 89.1968 82.1926 89.1969 82.0077V73.6742C89.1969 73.5498 89.2215 73.4266 89.2692 73.3118C89.317 73.1969 89.387 73.0925 89.4752 73.0045C89.5634 72.9166 89.6682 72.8469 89.7834 72.7993C89.8987 72.7517 90.0222 72.7273 90.147 72.7273C90.3988 72.7274 90.6404 72.8272 90.8184 73.0047C90.9965 73.1823 91.0965 73.4231 91.0965 73.6742V81.4537L94.9052 83.6458C95.0139 83.7076 95.1092 83.7902 95.1857 83.8888C95.2622 83.9875 95.3185 84.1002 95.3511 84.2206C95.3838 84.341 95.3924 84.4666 95.3762 84.5903C95.3601 84.7139 95.3196 84.8332 95.2571 84.9412C95.1946 85.0493 95.1113 85.1439 95.0119 85.2197C94.9126 85.2956 94.7993 85.3511 94.6784 85.3832C94.5575 85.4152 94.4314 85.4231 94.3075 85.4065C94.1835 85.3898 94.064 85.3489 93.956 85.2861Z" fill="white"/>
<path d="M19.9482 73.0114C17.2935 73.0114 14.7185 72.4932 12.2945 71.4711C11.1294 70.9798 10.0057 70.3718 8.9545 69.6638C7.91323 68.9626 6.93407 68.1572 6.0442 67.2701C5.15433 66.3829 4.34643 65.4068 3.64297 64.3688C2.93281 63.3209 2.32287 62.2006 1.83009 61.0392C0.804823 58.6227 0.284973 56.0556 0.284973 53.4092C0.284973 50.7627 0.804823 48.1956 1.83009 45.7792C2.32287 44.6177 2.93281 43.4975 3.64297 42.4495C4.34643 41.4115 5.15433 40.4354 6.0442 39.5483C6.93407 38.6611 7.91323 37.8558 8.9545 37.1545C10.0057 36.4465 11.1294 35.8385 12.2945 35.3472C14.7185 34.3251 17.2935 33.8069 19.9482 33.8069C22.6028 33.8069 25.1779 34.3251 27.6019 35.3472C28.767 35.8385 29.8907 36.4465 30.9419 37.1545C31.9831 37.8558 32.9623 38.6611 33.8522 39.5483C34.742 40.4354 35.5499 41.4115 36.2534 42.4495C36.9636 43.4975 37.5735 44.6177 38.0663 45.7792C39.0915 48.1956 39.6114 50.7627 39.6114 53.4092C39.6114 56.0556 39.0915 58.6227 38.0663 61.0392C37.5735 62.2006 36.9636 63.3209 36.2534 64.3688C35.5499 65.4068 34.742 66.3829 33.8522 67.2701C32.9623 68.1572 31.9831 68.9626 30.9419 69.6638C29.8907 70.3718 28.767 70.9798 27.6019 71.4711C25.1779 72.4932 22.6028 73.0114 19.9482 73.0114Z" fill="#EBEFF2"/>
<path d="M19.9482 34.0909C17.3319 34.0909 14.7942 34.6016 12.4055 35.6088C11.2574 36.0929 10.15 36.6921 9.11403 37.3898C8.08779 38.081 7.12275 38.8747 6.2457 39.7491C5.36866 40.6234 4.57242 41.5854 3.87911 42.6085C3.17925 43.6412 2.57817 44.7452 2.09255 45.8897C1.08223 48.271 0.569948 50.8009 0.569948 53.4091C0.569948 56.0173 1.08223 58.5471 2.09255 60.9284C2.57817 62.073 3.17925 63.1769 3.87911 64.2096C4.57242 65.2327 5.36866 66.1948 6.2457 67.0691C7.12275 67.9434 8.08779 68.7372 9.11403 69.4283C10.15 70.126 11.2574 70.7253 12.4055 71.2094C14.7942 72.2166 17.3319 72.7272 19.9482 72.7272C22.5645 72.7272 25.1022 72.2166 27.4909 71.2094C28.639 70.7253 29.7464 70.126 30.7823 69.4283C31.8086 68.7372 32.7736 67.9434 33.6507 67.0691C34.5277 66.1948 35.324 65.2327 36.0173 64.2096C36.7171 63.1769 37.3182 62.073 37.8038 60.9284C38.8141 58.5471 39.3264 56.0173 39.3264 53.4091C39.3264 50.8009 38.8141 48.271 37.8038 45.8897C37.3182 44.7452 36.7171 43.6412 36.0173 42.6085C35.324 41.5854 34.5277 40.6234 33.6507 39.7491C32.7736 38.8747 31.8086 38.081 30.7823 37.3898C29.7464 36.6921 28.639 36.0929 27.4909 35.6088C25.1022 34.6016 22.5645 34.0909 19.9482 34.0909ZM19.9482 33.5227C30.9653 33.5227 39.8964 42.4261 39.8964 53.4091C39.8964 64.392 30.9653 73.2954 19.9482 73.2954C8.93111 73.2954 0 64.392 0 53.4091C0 42.4261 8.93111 33.5227 19.9482 33.5227Z" fill="#0074D3"/>
<path d="M19.9482 40.3409C18.2181 40.3409 16.5404 40.6818 14.9617 41.3541C13.4352 42.0042 12.0637 42.9354 10.8854 44.1218C9.70604 45.3093 8.78018 46.6919 8.13349 48.2313C7.46387 49.8254 7.12435 51.5196 7.12435 53.267C7.12435 55.0144 7.46387 56.7086 8.13349 58.3027C8.78018 59.8421 9.70604 61.2248 10.8854 62.4122C12.0637 63.5986 13.4352 64.5298 14.9617 65.1799C16.5404 65.8522 18.2181 66.1931 19.9482 66.1931C21.6783 66.1931 23.3559 65.8522 24.9347 65.1799C26.4612 64.5298 27.8326 63.5986 29.011 62.4122C30.1903 61.2248 31.1162 59.8421 31.7629 58.3027C32.4325 56.7086 32.772 55.0144 32.772 53.267C32.772 51.5196 32.4325 49.8254 31.7629 48.2313C31.1162 46.6919 30.1903 45.3093 29.011 44.1218C27.8326 42.9354 26.4612 42.0042 24.9347 41.3541C23.3559 40.6818 21.6783 40.3409 19.9482 40.3409ZM19.9482 38.9204C27.8175 38.9204 34.1969 45.3436 34.1969 53.267C34.1969 61.1904 27.8175 67.6136 19.9482 67.6136C12.0788 67.6136 5.69948 61.1904 5.69948 53.267C5.69948 45.3436 12.0788 38.9204 19.9482 38.9204Z" fill="#0074D3"/>
<path d="M19.9482 40.3409C19.0962 40.3409 18.2547 40.6316 17.4469 41.205C16.5914 41.8122 15.8112 42.7014 15.128 43.8479C14.4133 45.0472 13.8497 46.4539 13.4527 48.0288C13.0354 49.6844 12.8238 51.4468 12.8238 53.267C12.8238 55.0872 13.0354 56.8496 13.4527 58.5052C13.8497 60.0802 14.4133 61.4868 15.128 62.6861C15.8112 63.8326 16.5914 64.7218 17.4469 65.329C18.2547 65.9024 19.0962 66.1931 19.9482 66.1931C20.8001 66.1931 21.6417 65.9024 22.4495 65.329C23.305 64.7218 24.0852 63.8326 24.7684 62.6861C25.483 61.4868 26.0467 60.0802 26.4436 58.5052C26.8609 56.8496 27.0725 55.0872 27.0725 53.267C27.0725 51.4468 26.8609 49.6844 26.4436 48.0288C26.0467 46.4539 25.483 45.0472 24.7684 43.8479C24.0852 42.7014 23.305 41.8122 22.4495 41.205C21.6417 40.6316 20.8001 40.3409 19.9482 40.3409ZM19.9482 38.9204C24.6698 38.9204 28.4974 45.3436 28.4974 53.267C28.4974 61.1904 24.6698 67.6136 19.9482 67.6136C15.2266 67.6136 11.399 61.1904 11.399 53.267C11.399 45.3436 15.2266 38.9204 19.9482 38.9204Z" fill="#0074D3"/>
<path d="M33.4845 53.8352V52.4148H6.69689V53.8352H33.4845Z" fill="#0074D3"/>
<path d="M32.0596 60.0852V58.6648H8.12176V60.0852H32.0596Z" fill="#0074D3"/>
<path d="M32.0596 47.8692V46.4487H8.12176V47.8692H32.0596Z" fill="#0074D3"/>
<path d="M20.8031 39.7727H19.3782V66.4773H20.8031V39.7727Z" fill="#0074D3"/>
</svg>
