<svg width="19" height="24" viewBox="0 0 19 24" fill="none" xmlns="http://www.w3.org/2000/svg">
<path d="M2.93182 23H2.43182V23.5H2.93182V23ZM1 21.0702H0.5V21.5702H1V21.0702ZM1 1V0.5H0.5V1H1ZM16.8409 1H17.3409V0.5H16.8409V1ZM18 7.94737H18.5V7.74011L18.3534 7.59363L18 7.94737ZM18 23V23.5H18.5V23H18ZM2.93182 2.92982V2.42982H2.43182V2.92982H2.93182ZM12.5909 2.92982L12.9271 2.55968L12.7841 2.42982H12.5909V2.92982ZM5.63636 9.76316C5.36022 9.76316 5.13636 9.98702 5.13636 10.2632C5.13636 10.5393 5.36022 10.7632 5.63636 10.7632V9.76316ZM14.9091 10.7632C15.1852 10.7632 15.4091 10.5393 15.4091 10.2632C15.4091 9.98702 15.1852 9.76316 14.9091 9.76316V10.7632ZM5.63636 7.44737C5.36022 7.44737 5.13636 7.67123 5.13636 7.94737C5.13636 8.22351 5.36022 8.44737 5.63636 8.44737V7.44737ZM9.5 8.44737C9.77614 8.44737 10 8.22351 10 7.94737C10 7.67123 9.77614 7.44737 9.5 7.44737V8.44737ZM5.63636 12.0789C5.36022 12.0789 5.13636 12.3028 5.13636 12.5789C5.13636 12.8551 5.36022 13.0789 5.63636 13.0789V12.0789ZM14.9091 13.0789C15.1852 13.0789 15.4091 12.8551 15.4091 12.5789C15.4091 12.3028 15.1852 12.0789 14.9091 12.0789V13.0789ZM5.63636 14.3947C5.36022 14.3947 5.13636 14.6186 5.13636 14.8947C5.13636 15.1709 5.36022 15.3947 5.63636 15.3947V14.3947ZM14.9091 15.3947C15.1852 15.3947 15.4091 15.1709 15.4091 14.8947C15.4091 14.6186 15.1852 14.3947 14.9091 14.3947V15.3947ZM5.63636 16.7105C5.36022 16.7105 5.13636 16.9344 5.13636 17.2105C5.13636 17.4867 5.36022 17.7105 5.63636 17.7105V16.7105ZM14.9091 17.7105C15.1852 17.7105 15.4091 17.4867 15.4091 17.2105C15.4091 16.9344 15.1852 16.7105 14.9091 16.7105V17.7105ZM2.93182 20.5702H1V21.5702H2.93182V20.5702ZM1.5 21.0702V1H0.5V21.0702H1.5ZM16.3409 1V6.78947H17.3409V1H16.3409ZM16.4875 7.14321L17.6466 8.3011L18.3534 7.59363L17.1943 6.43574L16.4875 7.14321ZM17.5 7.94737V23H18.5V7.94737H17.5ZM18 22.5H2.93182V23.5H18V22.5ZM2.93182 3.42982H12.5909V2.42982H2.93182V3.42982ZM12.2548 3.29997L16.5048 7.15962L17.1771 6.41933L12.9271 2.55968L12.2548 3.29997ZM5.63636 10.7632H14.9091V9.76316H5.63636V10.7632ZM5.63636 8.44737H9.5V7.44737H5.63636V8.44737ZM5.63636 13.0789H14.9091V12.0789H5.63636V13.0789ZM5.63636 15.3947H14.9091V14.3947H5.63636V15.3947ZM5.63636 17.7105H14.9091V16.7105H5.63636V17.7105ZM3.43182 23V21.0702H2.43182V23H3.43182ZM1 1.5H16.8409V0.5H1V1.5ZM3.43182 21.0702V2.92982H2.43182V21.0702H3.43182Z" fill="#0074D4"/>
</svg>
