<svg width="20" height="20" viewBox="0 0 20 20" fill="none" xmlns="http://www.w3.org/2000/svg">
<g clip-path="url(#clip0)">
<path d="M16.6134 2.00617H13.0409V0.652187C13.0409 0.292031 12.7489 0 12.3887 0H7.6117C7.25154 0 6.95951 0.291992 6.95951 0.652187V2.00617H3.38705C3.02689 2.00617 2.73486 2.29816 2.73486 2.65836V4.66449C2.73486 5.02465 3.02686 5.31668 3.38705 5.31668H3.58518L4.18127 19.3755C4.19604 19.7246 4.48342 20 4.83283 20H15.1675C15.517 20 15.8043 19.7246 15.8191 19.3755L16.4151 5.31664H16.6133C16.9735 5.31664 17.2655 5.02465 17.2655 4.66445V2.65836C17.2656 2.29813 16.9736 2.00617 16.6134 2.00617ZM8.26389 1.30434H11.7365V2.00617H8.26389V1.30434ZM14.5425 18.6957H5.45795L4.89068 5.31668H15.1097L14.5425 18.6957ZM15.9612 4.0123C15.3686 4.0123 4.39424 4.0123 4.03924 4.0123V3.31051H15.9612V4.0123Z" fill="#858585"/>
<path d="M7.37631 7.31665C7.01615 7.31665 6.72412 7.60864 6.72412 7.96884V16.0436C6.72412 16.4037 7.01611 16.6958 7.37631 16.6958C7.73647 16.6958 8.0285 16.4038 8.0285 16.0436V7.96884C8.02846 7.60864 7.73647 7.31665 7.37631 7.31665Z" fill="#858585"/>
<path d="M9.99984 7.31665C9.63969 7.31665 9.34766 7.60864 9.34766 7.96884V16.0436C9.34766 16.4037 9.63961 16.6958 9.99984 16.6958C10.36 16.6958 10.652 16.4038 10.652 16.0436V7.96884C10.652 7.60864 10.36 7.31665 9.99984 7.31665Z" fill="#858585"/>
<path d="M12.6234 7.31665C12.2632 7.31665 11.9712 7.60864 11.9712 7.96884V16.0436C11.9712 16.4037 12.2632 16.6958 12.6234 16.6958C12.9836 16.6958 13.2756 16.4038 13.2756 16.0436V7.96884C13.2756 7.60864 12.9836 7.31665 12.6234 7.31665Z" fill="#858585"/>
</g>
<defs>
<clipPath id="clip0">
<rect width="20" height="20" fill="white"/>
</clipPath>
</defs>
</svg>
