<svg width="20" height="20" viewBox="0 0 20 20" fill="none" xmlns="http://www.w3.org/2000/svg">
<path d="M3.51562 14.7219C3.9471 14.7219 4.29688 14.3721 4.29688 13.9407C4.29688 13.5092 3.9471 13.1594 3.51562 13.1594C3.08415 13.1594 2.73438 13.5092 2.73438 13.9407C2.73438 14.3721 3.08415 14.7219 3.51562 14.7219Z" fill="#858585"/>
<path d="M0.78125 14.7219C1.21272 14.7219 1.5625 14.3721 1.5625 13.9407C1.5625 13.5092 1.21272 13.1594 0.78125 13.1594C0.349778 13.1594 0 13.5092 0 13.9407C0 14.3721 0.349778 14.7219 0.78125 14.7219Z" fill="#858585"/>
<path d="M6.25 14.7219C6.68147 14.7219 7.03125 14.3721 7.03125 13.9407C7.03125 13.5092 6.68147 13.1594 6.25 13.1594C5.81853 13.1594 5.46875 13.5092 5.46875 13.9407C5.46875 14.3721 5.81853 14.7219 6.25 14.7219Z" fill="#858585"/>
<path d="M17.5051 2.93433L8.20312 12.2363V14.7223H10.6891L19.9911 5.42022L17.5051 2.93433ZM10.2037 13.5504H9.375V12.7217L17.5052 4.59159L18.3338 5.42022L10.2037 13.5504Z" fill="#858585"/>
<path d="M20 15.8938H0V17.0657H20V15.8938Z" fill="#858585"/>
</svg>
