<svg width="24" height="24" viewBox="0 0 24 24" fill="none" xmlns="http://www.w3.org/2000/svg">
<path d="M20.592 11.0322L8.84216 20.3342V22.8202H11.9823L23.7322 13.5181L20.592 11.0322ZM11.3692 21.6483H10.3224V20.8196L20.5921 12.6895L21.6388 13.5181L11.3692 21.6483Z" fill="#0074D4"/>
<path fill-rule="evenodd" clip-rule="evenodd" d="M0.581909 1H0.0819092V1.5V18.8978V20.7486V21.2486H0.581909H8.84209V20.3343L8.95025 20.2486H1.08191V18.8978V2H12.0095L16.9684 5.59956L18.1622 6.55276V12.9559L19.1622 12.1642V6.31216V6.07156L18.9742 5.92144L17.5834 4.81094L17.5744 4.80377L17.5651 4.79703L12.4655 1.09536L12.3342 1H12.1718H0.581909ZM19.1622 17.1361L18.1622 17.9277V20.2486H15.2305L13.9674 21.2486H18.6622H19.1622V20.7486V17.1361ZM3.82708 5.81216C3.55094 5.81216 3.32708 6.03602 3.32708 6.31216C3.32708 6.5883 3.55094 6.81216 3.82708 6.81216H8.46305C8.73919 6.81216 8.96305 6.5883 8.96305 6.31216C8.96305 6.03602 8.73919 5.81216 8.46305 5.81216H3.82708ZM3.82708 8.03316C3.55094 8.03316 3.32708 8.25702 3.32708 8.53316C3.32708 8.8093 3.55094 9.03316 3.82708 9.03316H14.9534C15.2295 9.03316 15.4534 8.8093 15.4534 8.53316C15.4534 8.25702 15.2295 8.03316 14.9534 8.03316H3.82708ZM3.82708 10.2542C3.55094 10.2542 3.32708 10.478 3.32708 10.7542C3.32708 11.0303 3.55094 11.2542 3.82708 11.2542H14.9534C15.2295 11.2542 15.4534 11.0303 15.4534 10.7542C15.4534 10.478 15.2295 10.2542 14.9534 10.2542H3.82708ZM3.82708 12.4752C3.55094 12.4752 3.32708 12.699 3.32708 12.9752C3.32708 13.2513 3.55094 13.4752 3.82708 13.4752H12.6316C12.9077 13.4752 13.1316 13.2513 13.1316 12.9752C13.1316 12.699 12.9077 12.4752 12.6316 12.4752H3.82708ZM3.82708 14.6962C3.55094 14.6962 3.32708 14.92 3.32708 15.1962C3.32708 15.4723 3.55094 15.6962 3.82708 15.6962H10.1052C10.3814 15.6962 10.6052 15.4723 10.6052 15.1962C10.6052 14.92 10.3814 14.6962 10.1052 14.6962H3.82708Z" fill="#0074D4"/>
</svg>
