<svg width="24" height="24" viewBox="0 0 24 24" fill="none" xmlns="http://www.w3.org/2000/svg">
<path fill-rule="evenodd" clip-rule="evenodd" d="M12.3231 18.9927C14.2507 18.9051 15.9751 18.0379 17.1884 16.699C17.3333 16.5392 17.471 16.3727 17.6007 16.2C18.4795 15.0301 19 13.5758 19 12C19 10.4242 18.4793 8.97004 17.6006 7.80014C17.4709 7.62739 17.3335 7.4607 17.1887 7.30088C15.9753 5.96197 14.2507 5.09491 12.3231 5.00733V5H11.677V5.00732C7.96093 5.17611 5 8.24227 5 12C5 15.7577 7.96093 18.8239 11.677 18.9927V19H12.3231V18.9927ZM12.3231 18.3158C12.9232 18.1757 13.5579 17.6433 14.0963 16.6434C14.2637 16.3325 14.4154 15.9866 14.5476 15.6109C13.8634 15.4575 13.1143 15.3629 12.3231 15.3426L12.3231 18.3158ZM11.677 18.3159L11.677 15.3426C10.8858 15.363 10.1367 15.4575 9.45243 15.611C9.58467 15.9866 9.7363 16.3326 9.90367 16.6434C10.4421 17.6434 11.0768 18.1758 11.677 18.3159ZM12.3231 14.6962C13.1777 14.7171 13.9924 14.8205 14.7403 14.992C14.9586 14.1928 15.0941 13.2893 15.1189 12.323H12.3231V14.6962ZM11.677 12.323V14.6963C10.8224 14.7172 10.0077 14.8206 9.25976 14.9921C9.04143 14.1929 8.9059 13.2893 8.88106 12.323H11.677ZM12.3231 11.6769H15.1189C15.0941 10.7106 14.9586 9.8072 14.7403 9.008C13.9924 9.17946 13.1777 9.28287 12.3231 9.30375V11.6769ZM11.677 9.30374V11.6769H8.88107C8.90591 10.7106 9.04144 9.8071 9.25976 9.00787C10.0077 9.17938 10.8224 9.28282 11.677 9.30374ZM12.3231 8.6574C13.1143 8.63708 13.8634 8.54255 14.5476 8.38913C14.4154 8.01344 14.2637 7.66746 14.0963 7.35659C13.5579 6.35669 12.9232 5.8243 12.3231 5.68415L12.3231 8.6574ZM11.677 5.68413L11.677 8.65739C10.8858 8.63703 10.1367 8.54246 9.45243 8.389C9.58467 8.01337 9.7363 7.66743 9.90367 7.35659C10.4421 6.35663 11.0768 5.82424 11.677 5.68413ZM15.3654 15.1556C15.5991 14.2979 15.7404 13.3386 15.7653 12.323H18.3458C18.2795 13.6469 17.808 14.864 17.0528 15.8528C16.5613 15.5769 15.9926 15.3412 15.3654 15.1556ZM15.7653 11.6769H18.3458C18.2795 10.3531 17.808 9.13601 17.0529 8.14718C16.5613 8.42312 15.9926 8.65887 15.3654 8.84438C15.5991 9.70213 15.7404 10.6613 15.7653 11.6769ZM5.65423 11.6769H8.23471C8.25956 10.6612 8.40095 9.702 8.63463 8.84422C8.00745 8.65868 7.43878 8.4229 6.94732 8.14695C6.19208 9.13582 5.72054 10.353 5.65423 11.6769ZM8.23471 12.323H5.65422C5.72052 13.647 6.19205 14.8641 6.9473 15.853C7.43877 15.5771 8.00744 15.3413 8.63463 15.1558C8.40094 14.298 8.25955 13.3387 8.23471 12.323ZM15.1753 15.7733C14.8486 16.7197 14.4025 17.5104 13.8765 18.0722C14.9389 17.7442 15.8823 17.1451 16.6259 16.3557C16.2023 16.1294 15.7143 15.9322 15.1753 15.7733ZM7.37422 16.3559C7.79777 16.1296 8.28579 15.9324 8.82473 15.7734C9.15148 16.7197 9.59754 17.5104 10.1235 18.0722C9.06114 17.7443 8.11778 17.1452 7.37422 16.3559ZM15.1753 8.22677C15.7143 8.0678 16.2024 7.87061 16.626 7.6443C15.8824 6.85487 14.9389 6.25576 13.8765 5.92781C14.4025 6.48962 14.8486 7.28035 15.1753 8.22677ZM10.1235 5.92781C9.59754 6.48959 9.15149 7.28026 8.82474 8.22661C8.2858 8.06762 7.79779 7.87041 7.37424 7.64409C8.1178 6.85476 9.06115 6.25573 10.1235 5.92781Z" fill="#FAFAFA"/>
</svg>
