<svg width="24" height="24" viewBox="0 0 24 24" fill="none" xmlns="http://www.w3.org/2000/svg">
<path d="M12.5742 17.5329C12.5463 17.5453 12.5208 17.5564 12.4978 17.5665C12.475 17.5568 12.4498 17.546 12.4223 17.5341C12.2766 17.4712 12.0672 17.3773 11.8154 17.255C11.3108 17.0099 10.6408 16.6527 9.97346 16.2032C9.30381 15.7522 8.65165 15.2179 8.17044 14.6227C7.68909 14.0273 7.4 13.398 7.4 12.7461V7.00915C9.28431 6.93892 10.9842 6.37453 12.4956 5.47158C13.9579 6.37786 15.7138 6.93929 17.6 7.00918V12.7461C17.6 13.3792 17.3127 13.9997 16.8302 14.5935C16.3484 15.1865 15.6955 15.7233 15.0251 16.1789C14.3572 16.6329 13.6867 16.9965 13.1816 17.247C12.9296 17.372 12.72 17.4682 12.5742 17.5329ZM13.56 13.0829V11.9692C14.0133 11.669 14.3667 11.1397 14.3667 10.5233C14.3667 9.53014 13.4949 8.77617 12.5 8.77617C11.5051 8.77617 10.6333 9.53014 10.6333 10.5233C10.6333 11.1225 10.9212 11.674 11.44 11.9837V13.0829C11.44 13.3265 11.5676 13.5273 11.7069 13.6553C11.8485 13.7854 12.0515 13.887 12.28 13.887H12.72C12.9485 13.887 13.1515 13.7854 13.2931 13.6553C13.4324 13.5273 13.56 13.3265 13.56 13.0829Z" stroke="#FAFAFA" stroke-width="0.8"/>
</svg>
