<svg width="24" height="24" viewBox="0 0 24 24" fill="none" xmlns="http://www.w3.org/2000/svg">
<mask id="path-1-inside-1" fill="white">
<path d="M11.9932 9.13636C10.4056 9.13636 9.13559 10.4091 9.13559 12C9.13559 13.5909 10.4056 14.8636 11.9932 14.8636C13.5807 14.8636 14.8508 13.5909 14.8508 12C14.8508 10.4091 13.5807 9.13636 11.9932 9.13636ZM11.9932 14.1C10.7866 14.1 9.89761 13.2091 9.89761 12C9.89761 10.7909 10.7866 9.9 11.9932 9.9C13.1997 9.9 14.0888 10.7909 14.0888 12C14.1523 13.2091 13.1997 14.1 11.9932 14.1ZM18.5974 12.8909L17.5814 11.9364V11.8091L18.5974 10.8545C18.9784 10.4727 19.0419 9.96364 18.7879 9.39091L17.6449 7.54545C17.3274 7.22727 17.0099 6.97273 16.5654 6.97273H16.3113L14.8508 7.35455H14.7873C14.6603 7.29091 14.5968 7.22727 14.5333 7.16364L14.2158 5.95455C14.1523 5.38182 13.5807 5 13.0092 5H10.7866C10.2151 5 9.77061 5.31818 9.5801 5.82727L9.19909 7.22727C9.07208 7.29091 8.94508 7.35455 8.88158 7.35455L7.61153 7.03636H7.35752C6.91301 7.03636 6.59549 7.29091 6.27798 7.60909L5.19844 9.39091C4.88093 9.83636 4.94444 10.4727 5.38895 10.9182L6.40499 12.0636V12.1909L5.38895 13.1455C5.00794 13.5273 4.94444 14.0364 5.19844 14.6091L6.34149 16.4545C6.659 16.7727 6.97651 17.0273 7.42102 17.0273H7.67503L9.13559 16.6455H9.19909C9.32609 16.7091 9.38959 16.7727 9.4531 16.8364L9.77061 18.0455C9.83411 18.6182 10.4056 19 10.9772 19H13.1997C13.7713 19 14.2158 18.6182 14.4063 18.0455L14.7873 16.6455C14.9143 16.5818 15.0413 16.5182 15.1048 16.5182L16.3748 16.8364H16.6924C17.1369 16.8364 17.4544 16.5818 17.7719 16.2636L18.8514 14.4818C19.1054 13.9727 19.0419 13.3364 18.5974 12.8909ZM18.1529 14.1L17.0099 15.9455C16.8829 16.1364 16.6924 16.2636 16.5018 16.2636H16.3113L15.0413 15.9455H14.9778C14.7238 15.9455 14.4698 16.0091 14.2793 16.2L14.2158 16.2636C14.0888 16.3273 13.9618 16.4545 13.9618 16.6455L13.5807 17.9818C13.5172 18.1727 13.3267 18.3636 13.0727 18.3636H10.8501C10.6596 18.3636 10.4056 18.2364 10.3421 17.9182L9.96111 16.4545L9.89761 16.3909C9.77061 16.2636 9.5801 16.0727 9.38959 15.9455L9.26259 15.8818H8.81807L7.61153 16.3273H7.42102C7.23052 16.3273 7.04001 16.2 6.91301 16.0727L5.76996 14.2273C5.70646 13.9727 5.70646 13.7182 5.83347 13.6545L6.8495 12.7C6.91301 12.5727 6.97651 12.5727 6.97651 12.5091L7.10351 12.3818V11.9364C7.10351 11.7455 6.97651 11.6182 6.8495 11.4909L5.83347 10.5364C5.70646 10.3455 5.64296 10.1545 5.76996 9.96364L6.91301 8.11818C7.04001 7.92727 7.23052 7.8 7.42102 7.8H7.67503L8.88158 8.05455H8.94508C9.19909 8.05455 9.4531 7.99091 9.6436 7.8L9.70711 7.73636C9.83411 7.67273 9.96111 7.54545 9.96111 7.35455L10.3421 6.01818C10.4056 5.82727 10.5961 5.63636 10.8501 5.63636H13.0727C13.2632 5.63636 13.5172 5.76364 13.5807 6.08182L13.9618 7.54545V7.60909C14.0888 7.73636 14.2793 7.92727 14.4698 8.05455L14.5968 8.11818H14.9778L16.4383 7.73636H16.6289C16.8194 7.73636 17.0099 7.86364 17.1369 7.99091L18.2799 9.83636C18.3434 10.0909 18.3434 10.3455 18.2164 10.4091L17.0734 11.4273C17.0099 11.4909 16.9464 11.5545 16.9464 11.6182L16.8194 11.7455V12.1909C16.8194 12.3818 16.9464 12.5091 17.0734 12.6364L18.0894 13.5909C18.2164 13.7182 18.3434 13.9091 18.1529 14.1Z"/>
</mask>
<path d="M11.9932 9.13636C10.4056 9.13636 9.13559 10.4091 9.13559 12C9.13559 13.5909 10.4056 14.8636 11.9932 14.8636C13.5807 14.8636 14.8508 13.5909 14.8508 12C14.8508 10.4091 13.5807 9.13636 11.9932 9.13636ZM11.9932 14.1C10.7866 14.1 9.89761 13.2091 9.89761 12C9.89761 10.7909 10.7866 9.9 11.9932 9.9C13.1997 9.9 14.0888 10.7909 14.0888 12C14.1523 13.2091 13.1997 14.1 11.9932 14.1ZM18.5974 12.8909L17.5814 11.9364V11.8091L18.5974 10.8545C18.9784 10.4727 19.0419 9.96364 18.7879 9.39091L17.6449 7.54545C17.3274 7.22727 17.0099 6.97273 16.5654 6.97273H16.3113L14.8508 7.35455H14.7873C14.6603 7.29091 14.5968 7.22727 14.5333 7.16364L14.2158 5.95455C14.1523 5.38182 13.5807 5 13.0092 5H10.7866C10.2151 5 9.77061 5.31818 9.5801 5.82727L9.19909 7.22727C9.07208 7.29091 8.94508 7.35455 8.88158 7.35455L7.61153 7.03636H7.35752C6.91301 7.03636 6.59549 7.29091 6.27798 7.60909L5.19844 9.39091C4.88093 9.83636 4.94444 10.4727 5.38895 10.9182L6.40499 12.0636V12.1909L5.38895 13.1455C5.00794 13.5273 4.94444 14.0364 5.19844 14.6091L6.34149 16.4545C6.659 16.7727 6.97651 17.0273 7.42102 17.0273H7.67503L9.13559 16.6455H9.19909C9.32609 16.7091 9.38959 16.7727 9.4531 16.8364L9.77061 18.0455C9.83411 18.6182 10.4056 19 10.9772 19H13.1997C13.7713 19 14.2158 18.6182 14.4063 18.0455L14.7873 16.6455C14.9143 16.5818 15.0413 16.5182 15.1048 16.5182L16.3748 16.8364H16.6924C17.1369 16.8364 17.4544 16.5818 17.7719 16.2636L18.8514 14.4818C19.1054 13.9727 19.0419 13.3364 18.5974 12.8909ZM18.1529 14.1L17.0099 15.9455C16.8829 16.1364 16.6924 16.2636 16.5018 16.2636H16.3113L15.0413 15.9455H14.9778C14.7238 15.9455 14.4698 16.0091 14.2793 16.2L14.2158 16.2636C14.0888 16.3273 13.9618 16.4545 13.9618 16.6455L13.5807 17.9818C13.5172 18.1727 13.3267 18.3636 13.0727 18.3636H10.8501C10.6596 18.3636 10.4056 18.2364 10.3421 17.9182L9.96111 16.4545L9.89761 16.3909C9.77061 16.2636 9.5801 16.0727 9.38959 15.9455L9.26259 15.8818H8.81807L7.61153 16.3273H7.42102C7.23052 16.3273 7.04001 16.2 6.91301 16.0727L5.76996 14.2273C5.70646 13.9727 5.70646 13.7182 5.83347 13.6545L6.8495 12.7C6.91301 12.5727 6.97651 12.5727 6.97651 12.5091L7.10351 12.3818V11.9364C7.10351 11.7455 6.97651 11.6182 6.8495 11.4909L5.83347 10.5364C5.70646 10.3455 5.64296 10.1545 5.76996 9.96364L6.91301 8.11818C7.04001 7.92727 7.23052 7.8 7.42102 7.8H7.67503L8.88158 8.05455H8.94508C9.19909 8.05455 9.4531 7.99091 9.6436 7.8L9.70711 7.73636C9.83411 7.67273 9.96111 7.54545 9.96111 7.35455L10.3421 6.01818C10.4056 5.82727 10.5961 5.63636 10.8501 5.63636H13.0727C13.2632 5.63636 13.5172 5.76364 13.5807 6.08182L13.9618 7.54545V7.60909C14.0888 7.73636 14.2793 7.92727 14.4698 8.05455L14.5968 8.11818H14.9778L16.4383 7.73636H16.6289C16.8194 7.73636 17.0099 7.86364 17.1369 7.99091L18.2799 9.83636C18.3434 10.0909 18.3434 10.3455 18.2164 10.4091L17.0734 11.4273C17.0099 11.4909 16.9464 11.5545 16.9464 11.6182L16.8194 11.7455V12.1909C16.8194 12.3818 16.9464 12.5091 17.0734 12.6364L18.0894 13.5909C18.2164 13.7182 18.3434 13.9091 18.1529 14.1Z" fill="#FAFAFA" stroke="#FAFAFA" stroke-opacity="0.6" stroke-width="2" mask="url(#path-1-inside-1)"/>
</svg>
