<svg width="19" height="19" viewBox="0 0 19 19" fill="none" xmlns="http://www.w3.org/2000/svg">
<path d="M17.4241 19L13.0461 14.622C11.5117 15.7585 9.60438 16.2727 7.70673 16.0613C5.80908 15.85 4.06156 14.9288 2.81484 13.4827C1.56812 12.0365 0.914463 10.1723 0.985031 8.26425C1.0556 6.35617 1.84517 4.54538 3.19531 3.19525C4.54544 1.84511 6.35623 1.05554 8.26431 0.98497C10.1724 0.914402 12.0366 1.56806 13.4827 2.81478C14.9289 4.06149 15.8501 5.80902 16.0614 7.70667C16.2727 9.60432 15.7585 11.5117 14.6221 13.046L19.0001 17.424L17.4251 19H17.4241ZM8.50005 2.99999C7.41226 2.99999 6.34889 3.32256 5.44442 3.92691C4.53995 4.53126 3.835 5.39024 3.41872 6.39523C3.00243 7.40023 2.89351 8.50609 3.10573 9.57299C3.31795 10.6399 3.84178 11.6199 4.61097 12.3891C5.38015 13.1583 6.36016 13.6821 7.42706 13.8943C8.49395 14.1065 9.59982 13.9976 10.6048 13.5813C11.6098 13.165 12.4688 12.4601 13.0731 11.5556C13.6775 10.6512 14.0001 9.58779 14.0001 8.49999C13.9985 7.04179 13.4185 5.64376 12.3874 4.61266C11.3563 3.58155 9.95826 3.00158 8.50005 2.99999Z" fill="#252525"/>
</svg>
