<svg width="24" height="24" viewBox="0 0 24 24" fill="none" xmlns="http://www.w3.org/2000/svg">
<path d="M10.9718 14.5647H7.02817L6.12676 17H5L8.38028 8H9.61972L13 17H11.8732L10.9718 14.5647ZM10.6338 13.7176L8.94366 9.05882L7.3662 13.7176H10.6338Z" fill="#FAFAFA"/>
<path d="M18.3617 10.5385C18.7872 10.8615 19 11.4 19 12.1538V16.8923H18.0426V16.0308C17.617 16.6769 16.9787 17 16.0213 17C15.2051 17 14.6193 16.7054 14.4255 16.4615C14.0831 16.0308 14 15.6 14 14.9538C14 14.2 14.3191 13.5538 14.9574 13.2308C15.5957 12.9077 16.6596 12.6923 18.0426 12.6923V12.1538C18.0426 11.7231 17.9362 11.4 17.617 11.1846C17.2979 10.9692 16.9787 10.8615 16.4468 10.8615C15.9149 10.8615 15.383 10.9692 14.8511 11.1846L14.6383 10.4308C15.2766 10.1077 15.9149 10 16.5532 10C17.2979 10 17.8298 10.1077 18.3617 10.5385ZM17.1915 15.9231C17.5106 15.8154 17.7234 15.6 17.9362 15.2769V13.4462C16.8723 13.4462 16.1277 13.5538 15.5957 13.7692C15.0638 13.9846 14.8511 14.4154 14.8511 14.8462C14.8511 15.2769 15.0638 15.6 15.2766 15.8154C15.4894 16.0308 15.8085 16.1385 16.234 16.1385C16.6596 16.1385 16.8723 16.0308 17.1915 15.9231Z" fill="#FAFAFA"/>
</svg>
