<svg width="160" height="20" viewBox="0 0 160 20" fill="none" xmlns="http://www.w3.org/2000/svg">
<path d="M3.26032 5.02094C3.17881 4.76989 3.17881 4.51885 3.26032 4.35148C3.34182 3.93307 3.58635 3.51466 4.40143 3.51466C5.135 3.51466 5.54254 4.01676 5.54254 4.68621V5.43935H8.63984V4.51885C8.63984 1.75734 6.1946 1.33893 4.48293 1.33893C2.28222 1.33893 0.489047 2.09207 0.163016 4.18412C0.0815079 4.76989 0.0815079 5.27199 0.163016 5.94144C0.733571 8.53558 5.135 9.28872 5.78706 10.9624C5.86857 11.2971 5.86857 11.6318 5.78706 11.8829C5.70555 12.3013 5.37952 12.7197 4.56444 12.7197C3.74936 12.7197 3.34182 12.2176 3.34182 11.5481V10.2929H0V11.2971C0 14.1423 2.20071 14.9791 4.48293 14.9791C6.76516 14.9791 8.55833 14.226 8.88436 12.0502C9.04738 10.9624 8.88436 10.2092 8.88436 9.95818C8.31381 7.28035 3.58635 6.52722 3.26032 5.02094ZM43.6882 5.02094C43.6067 4.76989 43.6882 4.51885 43.6882 4.35148C43.7697 3.93307 44.0143 3.51466 44.8293 3.51466C45.5629 3.51466 45.9705 3.93307 45.9705 4.68621V5.43935H48.9862V4.51885C48.9862 1.75734 46.6225 1.33893 44.8293 1.33893C42.6286 1.33893 40.8355 2.09207 40.5094 4.18412C40.4279 4.76989 40.4279 5.27199 40.5094 5.85776C41.08 8.4519 45.3999 9.20504 46.052 10.795C46.1335 11.1297 46.1335 11.4645 46.052 11.7155C45.9705 12.1339 45.6444 12.5523 44.8293 12.5523C44.0958 12.5523 43.6067 12.1339 43.6067 11.3808V10.1255H40.3464V11.1297C40.3464 13.9749 42.4656 14.8117 44.8293 14.8117C47.0301 14.8117 48.9047 14.0586 49.1493 11.9665C49.3123 10.8787 49.1493 10.2092 49.1493 9.8745C48.6602 7.28035 44.0143 6.52722 43.6882 5.02094ZM71.89 11.9665L68.9557 1.75734H64.3097V14.3933H67.3255L67.1625 3.76571L70.3413 14.3933H74.7427V1.75734H71.6454L71.89 11.9665ZM13.2858 1.75734L10.9221 14.477H14.2639L15.9755 2.67784L17.7687 14.477H21.1105L18.7468 1.75734H13.2858ZM32.0326 1.75734L30.484 11.7155L28.8538 1.75734H23.8003L23.5558 14.477H26.6531L26.7346 2.67784L28.8538 14.477H32.0326L34.1518 2.67784L34.2333 14.477H37.3306L37.0861 1.75734H32.0326ZM60.8864 1.75734H57.7076V11.1297C57.7076 11.2971 57.7076 11.4645 57.7076 11.6318C57.6261 11.9665 57.3816 12.5523 56.485 12.5523C55.5884 12.5523 55.3439 11.9665 55.2624 11.6318C55.2624 11.4645 55.2624 11.2971 55.2624 11.1297V1.75734H52.0835V10.8787C52.0835 11.1297 52.0835 11.6318 52.0835 11.7155C52.3281 14.0586 54.1212 14.8954 56.4035 14.8954C58.6857 14.8954 60.5604 14.1423 60.7234 11.7155C60.7234 11.5481 60.7234 11.1297 60.7234 10.8787V1.75734H60.8864ZM82.486 7.28035V9.12136H83.7901V10.9624C83.7901 11.1297 83.7901 11.2971 83.7901 11.4645C83.7086 11.7992 83.3826 12.385 82.486 12.385C81.5894 12.385 81.2634 11.7992 81.1819 11.4645C81.1819 11.2971 81.1819 11.1297 81.1819 10.9624V5.10462C81.1819 4.93726 81.1819 4.68621 81.2634 4.51885C81.3449 4.18412 81.5894 3.59835 82.486 3.59835C83.4641 3.59835 83.7086 4.2678 83.7086 4.51885C83.7086 4.68621 83.7086 5.02094 83.7086 5.02094V5.6904H86.8059V5.27199C86.8059 5.27199 86.8059 4.85358 86.8059 4.43517C86.5614 2.00839 84.6867 1.25525 82.486 1.25525C80.2853 1.25525 78.4106 2.00839 78.0846 4.43517C78.0846 4.68621 78.0031 5.02094 78.0031 5.27199V10.6276C78.0031 10.8787 78.0031 11.046 78.0846 11.4645C78.3291 13.8076 80.2853 14.6444 82.486 14.6444C84.6867 14.6444 86.6429 13.8076 86.8874 11.4645C86.8874 11.046 86.8874 10.8787 86.9689 10.6276V7.19667L82.486 7.28035Z" fill="#858585"/>
<path d="M95.1198 1.50623H99.6027C102.292 1.50623 104.33 3.68196 104.33 6.2761C104.33 8.95393 102.292 11.046 99.6027 11.046H97.565V14.8953H95.1198V1.50623ZM97.565 3.84932V8.78656H99.4397C100.907 8.78656 101.885 7.69869 101.885 6.2761C101.885 4.85351 100.907 3.84932 99.4397 3.84932H97.565Z" fill="#858585"/>
<path d="M105.471 4.18408H107.835V5.77404C108.324 4.68617 109.221 4.18408 110.525 4.18408C111.258 4.18408 111.91 4.35145 112.399 4.68617L111.503 7.02927C111.177 6.77822 110.769 6.61086 110.036 6.61086C108.65 6.61086 107.916 7.364 107.916 9.205V14.9791H105.471V4.18408Z" fill="#858585"/>
<path d="M114.437 0C115.415 0 115.986 0.585774 115.986 1.58996C115.986 2.51046 115.415 3.09623 114.437 3.09623C113.459 3.09623 112.888 2.51046 112.888 1.58996C112.97 0.669456 113.54 0 114.437 0ZM113.214 4.1841H115.66V14.9791H113.214V4.1841Z" fill="#858585"/>
<path d="M116.556 4.18408H119.083L121.773 11.7991L124.463 4.18408H126.989L123.077 14.9791H120.632L116.556 4.18408Z" fill="#858585"/>
<path d="M126.663 9.62342C126.663 6.02509 129.19 4.01672 131.88 4.01672C133.265 4.01672 134.488 4.6025 135.222 5.523V4.26777H137.667V15.0627H135.222V13.6402C134.488 14.6443 133.184 15.2301 131.798 15.2301C129.272 15.2301 126.663 13.1381 126.663 9.62342ZM135.385 9.53974C135.385 7.69873 134.081 6.19246 132.206 6.19246C130.413 6.19246 129.027 7.61505 129.027 9.53974C129.027 11.3807 130.413 12.887 132.206 12.887C133.999 12.887 135.385 11.3807 135.385 9.53974Z" fill="#858585"/>
<path d="M138.726 9.62342C138.726 6.4435 141.09 4.01672 144.187 4.01672C146.551 4.01672 148.344 5.43932 149.159 7.364L146.959 8.28451C146.47 7.11296 145.41 6.35982 144.106 6.35982C142.313 6.35982 141.009 7.78241 141.009 9.62342C141.009 11.3807 142.313 12.887 144.106 12.887C145.492 12.887 146.47 12.0502 146.959 10.8786L149.159 11.7992C148.344 13.8075 146.551 15.1464 144.106 15.1464C141.09 15.2301 138.726 12.7197 138.726 9.62342Z" fill="#858585"/>
<path d="M153.479 14.477L149.16 4.26782H151.768L154.702 11.5482L157.473 4.26782H160L153.724 20H151.279L153.479 14.477Z" fill="#858585"/>
</svg>
