<svg width="312" height="28" viewBox="0 0 312 28" fill="none" xmlns="http://www.w3.org/2000/svg">
<path d="M4.66368 7.02929C4.54708 6.67783 4.54708 6.32636 4.66368 6.09205C4.78027 5.50628 5.13004 4.9205 6.29596 4.9205C7.34529 4.9205 7.92825 5.62343 7.92825 6.56067V7.61507H12.3587V6.32636C12.3587 2.46025 8.86099 1.87448 6.41256 1.87448C3.26457 1.87448 0.699552 2.92887 0.233184 5.85774C0.116592 6.67783 0.116592 7.38076 0.233184 8.31799C1.04933 11.9498 7.34529 13.0042 8.27803 15.3473C8.39462 15.8159 8.39462 16.2845 8.27803 16.636C8.16143 17.2218 7.69507 17.8075 6.52915 17.8075C5.36323 17.8075 4.78027 17.1046 4.78027 16.1674V14.41H0V15.8159C0 19.7992 3.14798 20.9707 6.41256 20.9707C9.67713 20.9707 12.2422 19.9163 12.7085 16.8703C12.9417 15.3473 12.7085 14.2929 12.7085 13.9414C11.8924 10.1925 5.13004 9.13808 4.66368 7.02929ZM62.4933 7.02929C62.3767 6.67783 62.4933 6.32636 62.4933 6.09205C62.6099 5.50628 62.9596 4.9205 64.1256 4.9205C65.1749 4.9205 65.7578 5.50628 65.7578 6.56067V7.61507H70.0717V6.32636C70.0717 2.46025 66.6906 1.87448 64.1256 1.87448C60.9776 1.87448 58.4126 2.92887 57.9462 5.85774C57.8296 6.67783 57.8296 7.38076 57.9462 8.20084C58.7623 11.8326 64.9417 12.887 65.8744 15.113C65.991 15.5816 65.991 16.0502 65.8744 16.4017C65.7578 16.9875 65.2915 17.5732 64.1256 17.5732C63.0762 17.5732 62.3767 16.9875 62.3767 15.9331V14.1757H57.713V15.5816C57.713 19.5649 60.7444 20.7364 64.1256 20.7364C67.2735 20.7364 69.9551 19.682 70.3049 16.7531C70.5381 15.2301 70.3049 14.2929 70.3049 13.8243C69.6054 10.1925 62.9596 9.13808 62.4933 7.02929ZM102.834 16.7531L98.6368 2.46025H91.991V20.1506H96.3049L96.0717 5.27197L100.619 20.1506H106.915V2.46025H102.484L102.834 16.7531ZM19.0045 2.46025L15.6233 20.2678H20.4036L22.852 3.74896L25.417 20.2678H30.1973L26.8161 2.46025H19.0045ZM45.8206 2.46025L43.6054 16.4017L41.2735 2.46025H34.0448L33.6951 20.2678H38.1256L38.2421 3.74896L41.2735 20.2678H45.8206L48.852 3.74896L48.9686 20.2678H53.3991L53.0493 2.46025H45.8206ZM87.0942 2.46025H82.5471V15.5816C82.5471 15.8159 82.5471 16.0502 82.5471 16.2845C82.4305 16.7531 82.0807 17.5732 80.7982 17.5732C79.5157 17.5732 79.1659 16.7531 79.0493 16.2845C79.0493 16.0502 79.0493 15.8159 79.0493 15.5816V2.46025H74.5022V15.2301C74.5022 15.5816 74.5022 16.2845 74.5022 16.4017C74.852 19.682 77.417 20.8536 80.6816 20.8536C83.9462 20.8536 86.6278 19.7992 86.861 16.4017C86.861 16.1674 86.861 15.5816 86.861 15.2301V2.46025H87.0942ZM117.991 10.1925V12.7699H119.856V15.3473C119.856 15.5816 119.856 15.8159 119.856 16.0502C119.74 16.5188 119.274 17.3389 117.991 17.3389C116.709 17.3389 116.242 16.5188 116.126 16.0502C116.126 15.8159 116.126 15.5816 116.126 15.3473V7.14645C116.126 6.91214 116.126 6.56067 116.242 6.32636C116.359 5.85774 116.709 5.03766 117.991 5.03766C119.39 5.03766 119.74 5.9749 119.74 6.32636C119.74 6.56067 119.74 7.02929 119.74 7.02929V7.96653H124.17V7.38076C124.17 7.38076 124.17 6.79498 124.17 6.20921C123.821 2.81172 121.139 1.75732 117.991 1.75732C114.843 1.75732 112.161 2.81172 111.695 6.20921C111.695 6.56067 111.578 7.02929 111.578 7.38076V14.8787C111.578 15.2301 111.578 15.4644 111.695 16.0502C112.045 19.3305 114.843 20.5021 117.991 20.5021C121.139 20.5021 123.937 19.3305 124.287 16.0502C124.287 15.4644 124.287 15.2301 124.404 14.8787V10.0753L117.991 10.1925Z" fill="#010101"/>
<path d="M136.063 2.10876H142.475C146.323 2.10876 149.238 5.15479 149.238 8.78659C149.238 12.5355 146.323 15.4644 142.475 15.4644H139.561V20.8535H136.063V2.10876ZM139.561 5.3891V12.3012H142.242C144.341 12.3012 145.74 10.7782 145.74 8.78659C145.74 6.79496 144.341 5.3891 142.242 5.3891H139.561Z" fill="black"/>
<path d="M150.87 5.85779H154.251V8.08373C154.951 6.56072 156.233 5.85779 158.099 5.85779C159.148 5.85779 160.081 6.0921 160.78 6.56072L159.498 9.84105C159.031 9.48959 158.448 9.25528 157.399 9.25528C155.417 9.25528 154.368 10.3097 154.368 12.8871V20.9708H150.87V5.85779Z" fill="black"/>
<path d="M163.695 0C165.094 0 165.91 0.820084 165.91 2.22594C165.91 3.51464 165.094 4.33473 163.695 4.33473C162.296 4.33473 161.48 3.51464 161.48 2.22594C161.596 0.937239 162.412 0 163.695 0ZM161.946 5.85774H165.444V20.9707H161.946V5.85774Z" fill="black"/>
<path d="M166.726 5.85779H170.341L174.188 16.5189L178.036 5.85779H181.65L176.054 20.9708H172.556L166.726 5.85779Z" fill="black"/>
<path d="M181.184 13.4728C181.184 8.43513 184.798 5.62341 188.646 5.62341C190.628 5.62341 192.377 6.4435 193.426 7.7322V5.97488H196.924V21.0878H193.426V19.0962C192.377 20.5021 190.511 21.3222 188.529 21.3222C184.915 21.3222 181.184 18.3933 181.184 13.4728ZM193.659 13.3556C193.659 10.7782 191.794 8.66944 189.112 8.66944C186.547 8.66944 184.565 10.6611 184.565 13.3556C184.565 15.933 186.547 18.0418 189.112 18.0418C191.677 18.0418 193.659 15.933 193.659 13.3556Z" fill="black"/>
<path d="M198.439 13.4728C198.439 9.0209 201.821 5.62341 206.251 5.62341C209.632 5.62341 212.197 7.61505 213.363 10.3096L210.215 11.5983C209.516 9.95814 208 8.90375 206.135 8.90375C203.57 8.90375 201.704 10.8954 201.704 13.4728C201.704 15.933 203.57 18.0418 206.135 18.0418C208.117 18.0418 209.516 16.8703 210.215 15.2301L213.363 16.5188C212.197 19.3305 209.632 21.205 206.135 21.205C201.821 21.3222 198.439 17.8075 198.439 13.4728Z" fill="black"/>
<path d="M219.543 20.2677L213.363 5.97485H217.094L221.291 16.1673L225.256 5.97485H228.87L219.892 28H216.395L219.543 20.2677Z" fill="black"/>
<path d="M235.516 1.2887H242.278C246.359 1.2887 249.39 4.45188 249.39 8.31799C249.39 12.3012 246.359 15.4644 242.278 15.4644H239.247V21.205H235.516V1.2887ZM239.247 4.68619V12.0669H242.045C244.26 12.0669 245.776 10.4268 245.776 8.43514C245.776 6.44351 244.143 4.68619 242.045 4.68619H239.247Z" fill="black"/>
<path d="M250.09 13.2384C250.09 8.55221 253.704 4.92041 258.251 4.92041C262.798 4.92041 266.412 8.55221 266.412 13.2384C266.412 17.8074 262.798 21.5564 258.251 21.5564C253.704 21.4392 250.09 17.8074 250.09 13.2384ZM262.915 13.2384C262.915 10.5438 260.933 8.43506 258.251 8.43506C255.569 8.43506 253.587 10.5438 253.587 13.2384C253.587 15.933 255.569 18.0418 258.251 18.0418C260.933 18.0418 262.915 15.8158 262.915 13.2384Z" fill="black"/>
<path d="M268.161 5.27185H271.776V7.61495C272.475 6.09193 273.874 5.27185 275.856 5.27185C277.022 5.27185 277.955 5.50616 278.655 5.97478L277.256 9.48942C276.673 9.13796 276.09 8.90365 275.04 8.90365C272.942 8.90365 271.776 10.0752 271.776 12.7698V21.3221H268.161V5.27185Z" fill="black"/>
<path d="M279.238 5.27093H281.919V2.81068L285.65 0.233276V5.15378H288.915V8.43411H285.65V14.409C285.65 17.2207 286 17.5722 288.915 17.5722V21.0868H288.448C283.551 21.0868 282.036 19.5638 282.036 14.409V8.55127H279.354V5.27093H279.238Z" fill="black"/>
<path d="M289.614 13.2384C289.614 7.96644 293.462 4.92041 297.426 4.92041C299.525 4.92041 301.39 5.74049 302.556 7.14635V5.27187H306.17V21.2049H302.556V19.0961C301.39 20.6192 299.525 21.4392 297.426 21.4392C293.578 21.4392 289.614 18.3932 289.614 13.2384ZM302.789 13.1212C302.789 10.4267 300.807 8.20075 298.009 8.20075C295.327 8.20075 293.229 10.3095 293.229 13.1212C293.229 15.933 295.327 18.0417 298.009 18.0417C300.691 18.1589 302.789 15.933 302.789 13.1212Z" fill="black"/>
<path d="M308.269 1.05432H312V21.205H308.269V1.05432Z" fill="black"/>
</svg>
